<?xml version="1.0" standalone="no"?>
<!DOCTYPE svg PUBLIC "-//W3C//DTD SVG 20010904//EN"
 "http://www.w3.org/TR/2001/REC-SVG-20010904/DTD/svg10.dtd">
<svg version="1.0" xmlns="http://www.w3.org/2000/svg"
 width="586.000000pt" height="586.000000pt" viewBox="0 0 586.000000 586.000000"
 preserveAspectRatio="xMidYMid meet">
<metadata>
Created by potrace 1.14, written by Peter Selinger 2001-2017
</metadata>
<g transform="translate(0.000000,586.000000) scale(0.100000,-0.100000)"
fill="#000000" stroke="none">
<path d="M2654 5845 c-4 -8 -4 -30 -2 -49 5 -41 80 7 -659 -421 -321 -186
-583 -341 -583 -344 0 -4 111 -56 248 -116 136 -59 274 -120 307 -135 33 -14
215 -94 403 -176 267 -116 348 -155 364 -176 20 -29 23 -45 33 -233 4 -66 9
-122 10 -125 2 -3 6 -66 10 -141 l7 -136 -30 -5 c-17 -2 -39 0 -49 6 -15 8
-16 7 -6 -5 10 -13 8 -15 -15 -14 -15 1 -33 -3 -39 -8 -7 -5 -13 -6 -13 -2 0
4 -7 2 -15 -5 -9 -8 -15 -8 -15 -2 0 6 -9 10 -19 9 -12 -1 -17 -6 -13 -16 3
-9 1 -12 -6 -7 -6 3 -14 1 -18 -5 -4 -8 -9 -7 -15 2 -7 11 -9 9 -9 -5 0 -11
-3 -16 -7 -13 -3 4 -13 1 -21 -6 -13 -10 -15 -9 -8 3 4 9 1 8 -7 -2 -16 -21
-32 -24 -21 -5 5 6 -7 0 -25 -15 -18 -16 -41 -28 -52 -28 -10 0 -19 -5 -19
-11 0 -6 -6 -9 -12 -6 -7 2 -12 10 -10 16 1 7 -2 10 -7 6 -6 -3 -8 -12 -5 -20
4 -10 0 -13 -15 -10 -15 3 -18 0 -14 -13 6 -15 3 -14 -15 2 -19 17 -22 17 -28
2 -3 -9 -11 -13 -17 -9 -6 4 -24 6 -40 5 -21 -2 -26 1 -21 10 4 7 4 10 -1 6
-4 -4 -15 -2 -24 5 -14 10 -14 10 -3 -4 12 -15 7 -17 -42 -16 -32 1 -52 5 -49
11 4 5 1 6 -6 2 -7 -5 -10 -10 -7 -13 8 -9 -53 -55 -64 -48 -6 4 -7 -1 -3 -11
4 -11 2 -15 -4 -11 -6 4 -13 0 -16 -8 -4 -8 -15 -12 -27 -10 -18 3 -20 2 -10
-10 10 -12 9 -15 -4 -15 -9 0 -15 -6 -14 -12 2 -7 -3 -12 -10 -10 -6 1 -11 -4
-10 -10 2 -7 -3 -12 -10 -10 -8 1 -11 -2 -8 -7 8 -12 -18 -33 -29 -23 -5 4 -5
1 -1 -6 8 -14 -18 -45 -29 -34 -5 4 -5 -1 -2 -10 4 -10 0 -21 -8 -25 -8 -5
-16 -24 -18 -43 -2 -20 -5 -40 -8 -45 -3 -6 -4 -20 -3 -33 1 -17 -3 -22 -14
-17 -12 4 -12 3 -3 -8 12 -15 11 -43 -3 -66 -6 -9 -5 -12 1 -8 5 3 10 -1 10
-9 0 -8 -6 -13 -13 -10 -8 3 -11 0 -8 -8 7 -18 -22 -86 -35 -86 -6 0 -10 -3
-9 -7 4 -15 -13 -53 -23 -53 -6 0 -7 -4 -4 -10 3 -6 2 -10 -3 -10 -6 0 -9 -8
-8 -17 0 -10 -5 -17 -12 -15 -8 1 -11 -2 -7 -8 9 -14 -14 -42 -28 -33 -6 3 -7
1 -3 -6 4 -6 12 -9 17 -6 14 9 11 -5 -5 -21 -8 -7 -12 -23 -9 -34 3 -12 0 -20
-6 -20 -7 0 -10 4 -6 9 3 5 1 12 -4 15 -5 4 -8 -2 -6 -11 1 -10 0 -22 -3 -28
-3 -5 -6 -21 -7 -35 -3 -52 -17 -100 -29 -93 -7 4 -6 1 1 -9 7 -8 9 -18 5 -22
-8 -9 -9 -14 -11 -57 0 -16 -5 -28 -9 -25 -5 3 -9 -1 -9 -9 0 -8 5 -11 11 -8
6 4 0 -11 -13 -32 -16 -27 -18 -35 -6 -25 15 12 16 12 13 -6 -1 -10 -7 -22
-13 -26 -6 -5 -5 -8 4 -8 11 0 11 -3 1 -15 -7 -8 -17 -12 -23 -8 -6 3 -7 1 -3
-6 4 -6 11 -9 16 -6 5 3 11 1 15 -5 3 -5 2 -10 -4 -10 -6 0 -7 -7 -4 -17 5
-12 3 -14 -8 -8 -12 8 -12 6 0 -9 13 -15 13 -19 0 -27 -10 -6 -10 -9 -1 -9 6
0 12 -5 12 -11 0 -5 -6 -7 -12 -4 -7 4 -4 -1 6 -9 11 -9 14 -16 7 -16 -7 0
-10 -4 -7 -9 3 -4 6 -32 7 -60 1 -29 6 -54 11 -57 4 -3 4 -14 -2 -24 -13 -24
-13 -33 0 -25 6 3 10 1 10 -4 0 -6 -6 -11 -12 -11 -9 0 -10 -3 -2 -8 16 -11
24 -52 11 -52 -7 0 -4 -5 6 -11 9 -6 15 -15 12 -20 -4 -5 -11 -6 -17 -3 -7 4
-8 2 -4 -5 4 -6 12 -9 17 -6 5 4 9 -5 9 -19 0 -14 5 -28 10 -31 8 -5 8 -11 0
-20 -8 -9 -7 -14 5 -18 8 -4 12 -13 9 -22 -3 -8 -2 -15 3 -15 5 0 10 -7 11
-15 1 -8 3 -22 4 -30 1 -8 5 -15 10 -15 4 0 8 -8 8 -18 0 -10 5 -23 12 -30 8
-8 8 -15 -2 -27 -10 -12 -11 -18 -1 -28 10 -9 11 -8 5 7 -5 13 -3 17 6 14 7
-2 14 -14 15 -26 1 -11 -2 -19 -7 -16 -4 3 -8 -8 -8 -25 0 -17 -7 -34 -16 -39
-15 -8 -14 -10 1 -16 17 -6 17 -7 -1 -22 -10 -9 -14 -13 -7 -9 14 6 11 -53 -3
-77 -6 -10 -3 -9 12 2 10 8 16 10 12 6 -4 -5 -2 -16 5 -24 10 -13 9 -15 -8 -9
-17 6 -17 5 3 -11 18 -14 20 -20 10 -31 -7 -8 -8 -11 -3 -9 6 3 16 0 23 -8 7
-8 10 -14 5 -14 -4 0 1 -6 12 -13 10 -8 15 -19 11 -25 -4 -8 -2 -10 7 -6 16 6
31 -22 20 -38 -4 -7 -1 -8 6 -4 7 5 10 15 6 23 -4 13 -3 14 10 3 8 -7 12 -17
8 -24 -3 -6 -3 -8 2 -4 4 4 14 3 22 -3 7 -6 13 -8 13 -4 0 4 7 2 15 -5 8 -7
13 -16 10 -19 -2 -4 2 -8 10 -8 8 0 12 4 9 9 -3 4 0 8 5 8 6 0 11 -5 11 -11 0
-8 4 -8 14 0 11 9 16 9 22 0 5 -8 3 -10 -7 -4 -8 5 -11 4 -6 -1 4 -4 24 -7 44
-5 23 2 33 -1 29 -8 -5 -7 3 -11 18 -11 14 0 26 -4 26 -10 0 -5 7 -10 15 -10
8 0 15 -4 15 -10 0 -5 -4 -10 -10 -10 -5 0 -10 -5 -10 -12 0 -9 3 -9 12 0 15
15 32 16 23 2 -3 -5 1 -10 9 -10 9 0 16 -4 16 -10 0 -5 7 -10 15 -10 9 0 12
-6 8 -17 -5 -12 -3 -14 7 -8 8 5 17 2 24 -7 6 -8 26 -23 44 -32 18 -9 30 -21
27 -26 -4 -6 1 -7 11 -3 13 5 15 3 9 -7 -6 -10 -4 -12 9 -7 13 5 19 1 23 -14
4 -16 8 -17 14 -7 7 10 9 10 9 1 0 -7 7 -13 15 -13 8 0 15 -4 15 -10 0 -5 3
-9 8 -8 4 2 22 -3 40 -11 23 -9 31 -19 27 -29 -4 -12 -3 -13 10 -2 9 7 19 10
22 6 4 -4 1 -11 -7 -16 -11 -7 -10 -9 7 -7 12 0 20 4 17 8 -2 4 7 2 21 -4 14
-7 25 -15 25 -19 0 -4 6 -5 14 -2 8 3 17 0 22 -7 5 -8 3 -10 -6 -4 -9 5 -11 4
-6 -4 6 -9 11 -9 22 0 8 6 14 7 14 2 0 -9 6 -11 50 -15 11 -1 20 -6 20 -10 0
-4 12 -8 26 -8 15 0 33 -8 41 -17 8 -10 11 -12 7 -4 -5 10 -1 11 14 7 11 -4
33 -9 48 -11 62 -9 89 -17 92 -26 2 -5 12 -9 23 -9 11 0 19 -7 19 -16 0 -8 4
-12 10 -9 5 3 10 0 10 -7 0 -9 3 -9 10 2 9 13 10 13 11 0 1 -8 1 -19 0 -23 -1
-5 8 -6 19 -2 13 4 22 1 26 -9 3 -9 12 -16 19 -16 7 0 15 -4 17 -9 2 -6 14
-11 28 -13 14 -2 36 -10 49 -17 14 -8 21 -9 17 -2 -5 8 0 8 18 1 19 -7 26 -6
27 3 0 6 4 3 9 -8 6 -14 9 -15 9 -5 1 17 37 20 61 5 9 -6 11 -4 5 5 -6 10 -4
12 7 7 9 -3 21 0 28 6 10 10 12 8 6 -7 -5 -15 -4 -17 7 -8 8 7 17 9 20 5 4 -3
7 -1 7 7 0 10 4 10 17 -1 11 -10 14 -10 9 -1 -4 6 -3 12 3 12 5 0 17 3 27 7
13 5 15 3 9 -8 -5 -8 1 -6 13 5 12 10 33 18 47 18 14 0 28 4 31 9 8 14 36 11
28 -3 -4 -8 -3 -10 2 -5 5 5 9 14 9 20 0 7 9 11 19 9 12 -2 16 1 10 9 -5 9 -2
10 9 6 10 -4 14 -2 11 7 -3 7 4 21 16 31 11 10 20 24 20 32 0 7 3 12 8 12 4
-1 14 -1 22 0 12 1 12 3 2 10 -11 6 -10 11 3 25 9 9 21 14 26 11 5 -4 6 2 2
11 -5 14 -3 16 12 11 15 -6 16 -5 5 8 -7 8 -11 15 -9 16 2 0 13 2 24 4 11 2
21 9 23 15 2 5 8 8 13 4 5 -3 9 0 9 7 0 8 4 8 15 -1 13 -11 14 -10 9 4 -5 14
-2 16 20 12 15 -3 24 -1 21 5 -4 5 -11 6 -17 3 -7 -5 -8 -2 -4 5 5 7 14 10 22
7 8 -3 14 1 14 10 0 11 6 15 20 11 11 -3 18 -2 15 2 -2 5 7 13 20 19 14 7 25
17 25 23 0 8 5 8 15 -1 9 -7 18 -10 22 -6 3 3 1 6 -5 6 -7 0 -12 5 -12 11 0 6
7 8 16 5 8 -3 13 -2 11 2 -3 4 1 13 9 20 11 10 14 10 15 0 0 -7 4 -3 9 10 5
12 17 22 25 22 9 0 13 5 10 10 -3 6 1 10 10 10 10 0 13 5 9 12 -4 6 -3 8 3 5
5 -3 17 3 26 14 10 11 23 17 29 13 8 -5 9 -1 5 10 -6 14 -3 17 8 12 9 -3 14
-2 11 3 -8 13 21 34 36 25 10 -5 11 -4 1 7 -19 19 34 74 54 57 11 -9 13 -8 11
1 -4 18 33 40 39 24 3 -7 9 -13 14 -13 4 0 6 7 2 17 -5 13 -2 15 15 11 12 -4
25 -1 29 4 3 7 1 8 -5 4 -7 -4 -12 -2 -12 3 0 10 14 15 33 12 4 0 7 6 7 14 0
8 8 15 17 15 9 0 14 3 10 6 -7 8 16 33 25 28 4 -3 5 4 3 15 -2 11 2 22 9 24 7
3 16 24 20 47 4 27 10 39 18 34 7 -5 8 -3 2 7 -13 21 -14 38 -2 46 6 3 8 1 5
-4 -4 -6 0 -14 8 -17 9 -3 18 1 22 10 7 18 1 25 -25 27 -20 1 -20 1 0 39 11
21 24 38 29 38 5 0 8 3 8 8 -5 28 2 41 19 35 15 -6 15 -5 3 10 -7 9 -9 17 -4
17 5 0 10 12 11 26 1 15 10 33 20 41 9 8 12 12 6 9 -14 -7 -14 86 0 96 17 11
15 37 -1 31 -13 -5 -13 -3 -3 17 7 12 8 20 2 16 -13 -8 -11 57 3 66 6 5 4 8
-4 8 -11 0 -10 4 5 16 10 8 13 13 7 9 -7 -3 -13 -1 -13 4 0 6 6 11 13 11 8 0
7 4 -3 10 -13 9 -13 10 0 10 12 0 12 2 1 9 -9 6 -10 11 -2 15 6 4 11 12 11 17
0 6 -5 7 -11 3 -8 -5 -8 -1 0 14 14 26 14 35 1 27 -6 -3 -7 1 -4 9 3 9 10 13
15 10 5 -3 6 2 3 10 -3 9 -11 13 -18 9 -7 -4 -7 -2 1 8 7 9 11 25 8 37 -2 12
0 22 6 22 5 0 9 5 9 11 0 5 -4 8 -9 4 -5 -3 -12 -1 -16 5 -3 5 -2 10 3 10 13
0 11 30 -2 31 -6 0 -2 4 9 9 18 8 18 9 2 9 -14 1 -16 5 -7 20 6 12 6 21 0 23
-5 2 -10 29 -11 61 -1 33 -7 57 -13 57 -6 0 -4 5 4 10 12 8 12 10 1 10 -11 0
-11 3 0 17 10 11 10 14 2 9 -13 -7 -18 10 -14 43 2 8 -2 10 -11 5 -9 -5 -8 -2
2 11 8 10 10 16 4 12 -7 -4 -14 1 -17 11 -2 9 -8 26 -12 37 -6 17 -3 16 15 -5
12 -14 18 -18 14 -10 -4 8 -16 25 -27 38 -11 12 -17 22 -13 22 3 0 -1 14 -9
31 -20 38 -14 49 9 14 21 -33 51 -32 81 3 50 56 17 119 -56 106 -19 -4 -41
-13 -51 -21 -12 -11 -18 -11 -23 -3 -4 7 -1 17 6 22 11 8 10 9 -3 4 -20 -6
-35 10 -16 17 10 3 10 8 -1 18 -9 9 -11 9 -7 2 4 -7 5 -13 2 -13 -10 0 -35 57
-29 64 4 3 1 6 -5 6 -7 0 -12 8 -12 18 0 9 -12 29 -28 43 -29 28 -39 73 -21
96 9 10 8 17 -4 31 -12 13 -13 22 -5 36 8 14 7 17 -1 12 -16 -10 -14 6 4 31
10 14 12 24 5 28 -6 4 -9 3 -8 -2 2 -4 -1 -9 -7 -10 -5 -1 -9 5 -7 14 2 8 -5
24 -14 35 -16 17 -16 21 -4 30 13 8 12 9 -1 5 -20 -7 -64 37 -54 53 3 6 3 10
-2 9 -17 -4 -42 13 -37 26 3 7 0 16 -7 21 -8 5 -10 3 -4 -7 5 -8 -7 0 -27 16
-20 17 -37 36 -37 43 -1 6 -8 12 -17 12 -8 0 -13 4 -10 9 3 5 -4 11 -17 15
-19 5 -20 8 -7 17 12 8 10 9 -9 4 -19 -6 -23 -4 -18 8 3 9 0 14 -11 13 -9 0
-16 4 -15 10 1 7 -5 11 -14 10 -9 0 -18 5 -21 13 -3 8 0 11 6 7 6 -3 13 -2 17
3 3 6 -4 8 -16 6 -24 -5 -82 21 -75 33 3 4 -5 9 -16 9 -12 1 -26 7 -32 14 -8
9 -8 10 1 5 9 -5 11 -2 6 9 -4 13 -8 14 -14 4 -6 -10 -12 -10 -27 4 -10 9 -22
14 -27 10 -4 -5 -5 0 -2 9 7 20 -8 34 -19 17 -5 -8 -3 -9 6 -4 8 5 11 4 6 -3
-7 -12 -77 28 -70 40 3 4 -1 10 -7 14 -8 4 -9 3 -5 -4 4 -7 1 -12 -6 -12 -17
1 -49 25 -43 34 3 3 -1 2 -7 -4 -9 -7 -16 -4 -25 12 -7 13 -12 17 -13 10 0
-18 -105 -63 -126 -55 -13 5 -15 3 -9 -7 6 -10 4 -12 -8 -7 -10 3 -17 2 -17
-4 0 -6 -4 -8 -9 -5 -5 4 -11 1 -13 -4 -2 -6 -13 -12 -25 -13 -13 0 -25 -8
-28 -15 -4 -11 -8 -12 -20 -2 -12 10 -15 10 -15 -1 0 -11 -2 -11 -9 1 -6 8 -7
18 -4 24 3 5 1 6 -6 2 -6 -4 -9 -11 -6 -16 3 -5 -11 -7 -32 -3 -21 3 -49 6
-63 7 -14 0 -30 7 -36 15 -8 10 -13 11 -18 3 -4 -7 -19 -12 -33 -12 -23 0 -24
2 -12 18 13 15 12 16 -4 3 -21 -17 -67 -24 -67 -10 0 5 -5 9 -11 9 -5 0 -7 -4
-4 -10 8 -13 -8 -13 -22 1 -8 8 -13 7 -18 -2 -6 -8 -4 -10 5 -4 9 6 11 4 5 -5
-6 -10 -11 -9 -22 5 -7 11 -13 14 -13 8 0 -6 -7 -14 -16 -17 -8 -3 -12 -2 -9
4 3 6 1 10 -4 10 -6 0 -11 -4 -11 -8 0 -4 -9 -8 -20 -8 -15 0 -20 7 -21 26 0
14 -2 34 -4 45 -3 11 -6 58 -9 105 -3 47 -8 126 -13 175 -4 50 -7 140 -8 200
0 61 -3 112 -7 115 -4 3 -10 46 -13 95 -4 50 -8 108 -10 129 -3 22 -7 78 -10
125 -3 47 -8 113 -10 146 -3 33 -7 94 -10 135 -4 69 -9 144 -20 290 -10 128
-17 230 -21 305 -6 119 -10 147 -25 156 -20 13 -29 11 -35 -6z m1626 -2625 c0
-5 -2 -10 -4 -10 -3 0 -8 5 -11 10 -3 6 -1 10 4 10 6 0 11 -4 11 -10z"/>
<path d="M3303 4344 c5 -7 0 -11 -15 -9 -20 2 -69 -34 -68 -50 1 -21 -1 -26
-8 -21 -5 3 -6 -8 -4 -24 2 -18 9 -27 15 -23 7 4 8 0 3 -12 -5 -15 -4 -16 9
-5 12 10 15 10 15 0 0 -8 3 -10 7 -7 3 4 15 -1 26 -10 13 -11 17 -12 12 -4 -6
11 -4 13 8 8 10 -3 17 -2 17 3 0 6 6 10 13 10 24 0 36 21 26 47 -5 13 -5 22
-1 19 4 -2 8 4 8 14 0 10 -6 16 -13 13 -9 -3 -11 0 -7 10 3 8 0 18 -7 23 -8 5
-10 3 -4 -7 4 -8 -3 -3 -16 11 -13 14 -21 21 -16 14z"/>
<path d="M3316 3807 c3 -10 9 -15 12 -12 3 3 0 11 -7 18 -10 9 -11 8 -5 -6z"/>
<path d="M4169 3793 c-12 -14 -12 -16 1 -10 8 4 6 2 -4 -5 -51 -35 -67 -75
-33 -83 38 -9 121 -14 110 -7 -7 5 -6 11 3 20 8 7 14 9 14 5 0 -4 4 -2 9 6 10
16 3 51 -11 51 -5 0 -7 4 -3 9 3 6 -3 8 -15 6 -11 -2 -23 1 -26 7 -5 7 -2 8 6
3 9 -6 11 -4 5 5 -6 10 -11 9 -22 -5 -12 -17 -18 -14 -14 8 2 12 -6 8 -20 -10z"/>
<path d="M2406 3694 c-11 -8 -16 -14 -10 -14 13 0 39 18 34 24 -3 2 -14 -2
-24 -10z"/>
<path d="M2090 3661 c0 -6 4 -13 10 -16 6 -3 7 1 4 9 -7 18 -14 21 -14 7z"/>
<path d="M4190 3457 c0 -2 6 -10 14 -16 11 -9 16 -9 22 1 4 7 4 10 -1 6 -4 -4
-14 -3 -22 3 -7 6 -13 9 -13 6z"/>
<path d="M1656 3439 c5 -9 -1 -10 -27 -6 -21 4 -29 4 -20 -2 11 -7 11 -10 0
-17 -8 -5 -24 -28 -35 -51 -18 -35 -19 -40 -5 -35 14 5 14 4 2 -11 -12 -15
-12 -17 3 -11 9 3 16 2 16 -3 0 -5 6 -10 13 -11 21 -1 57 -11 69 -18 7 -4 8
-3 4 4 -4 7 -1 12 8 12 9 0 16 5 16 12 0 6 7 20 17 30 11 13 12 18 3 18 -10 0
-10 3 -1 14 10 12 8 17 -8 26 -12 6 -21 16 -21 23 0 7 -9 18 -21 25 -15 10
-19 10 -13 1z"/>
<path d="M1716 3413 c-6 -14 -5 -15 5 -6 7 7 10 15 7 18 -3 3 -9 -2 -12 -12z"/>
<path d="M4295 3159 c-4 -6 -5 -12 -2 -15 2 -3 7 2 10 11 7 17 1 20 -8 4z"/>
<path d="M1670 2999 c0 -5 5 -7 10 -4 6 3 10 8 10 11 0 2 -4 4 -10 4 -5 0 -10
-5 -10 -11z"/>
<path d="M1236 2141 c-4 -7 -5 -15 -2 -18 9 -9 19 4 14 18 -4 11 -6 11 -12 0z"/>
<path d="M1573 1825 c0 -8 4 -12 9 -9 5 3 6 10 3 15 -9 13 -12 11 -12 -6z"/>
<path d="M4426 1658 c3 -5 10 -6 15 -3 13 9 11 12 -6 12 -8 0 -12 -4 -9 -9z"/>
<path d="M4405 1540 c3 -5 8 -10 11 -10 2 0 4 5 4 10 0 6 -5 10 -11 10 -5 0
-7 -4 -4 -10z"/>
<path d="M4140 1305 c-7 -8 -9 -15 -6 -15 4 0 14 7 22 15 9 8 11 15 6 15 -5 0
-15 -7 -22 -15z"/>
<path d="M1782 1206 c-27 -14 -15 -36 21 -40 14 -2 26 0 25 3 -2 21 4 31 14
25 6 -4 8 -3 5 3 -11 17 -42 21 -65 9z"/>
<path d="M4482 1200 c-14 -23 -8 -40 14 -40 8 0 13 -4 9 -9 -3 -5 0 -13 7 -17
7 -4 10 -4 6 0 -3 4 0 19 8 34 12 24 12 28 -3 40 -22 16 -26 15 -41 -8z"/>
<path d="M1736 1025 c4 -8 10 -15 14 -15 4 0 10 7 14 15 4 10 -1 15 -14 15
-13 0 -18 -5 -14 -15z"/>
<path d="M2335 960 c-3 -6 1 -7 9 -4 18 7 21 14 7 14 -6 0 -13 -4 -16 -10z"/>
</g>
</svg>
