<svg width="128" height="158" viewBox="0 0 128 158" fill="none" xmlns="http://www.w3.org/2000/svg">
<g filter="url(#filter0_d_252_3343)">
<path fill-rule="evenodd" clip-rule="evenodd" d="M100.914 145.753C100.914 141.717 97.6438 138.448 93.6096 138.448H30.6205C26.5861 138.448 23.3159 141.717 23.3159 145.753C23.3159 149.787 26.5861 153.059 30.6205 153.059H93.6096C97.6438 153.059 100.914 149.787 100.914 145.753Z" fill="#8FA3BC"/>
<path fill-rule="evenodd" clip-rule="evenodd" d="M28.7031 117.911H95.5279V146.527H28.7031V117.911Z" fill="#0A2445"/>
<path fill-rule="evenodd" clip-rule="evenodd" d="M42.5396 123.233H81.6909V140.766H42.5396V123.233Z" fill="#BDBDBD"/>
<path d="M46.1004 137.976H78.1296V125.754H46.1004V137.976ZM78.6937 139.105H45.5363C45.2248 139.105 44.9722 138.851 44.9722 138.54V125.19C44.9722 124.879 45.2248 124.626 45.5363 124.626H78.6937C79.0052 124.626 79.2579 124.879 79.2579 125.19V138.54C79.2579 138.851 79.0052 139.105 78.6937 139.105Z" fill="#8C9298"/>
<path fill-rule="evenodd" clip-rule="evenodd" d="M28.7034 114.294C28.9115 108.376 47.8701 107.132 62.1137 97.5817C76.448 108.35 95.3172 108.39 95.5247 114.294H95.5262V117.887H28.7017V114.294H28.7034Z" fill="#8C9298"/>
<path d="M90.5075 114.906H33.7209C33.4686 114.906 33.2642 114.702 33.2642 114.45C33.2642 114.197 33.4686 113.993 33.7209 113.993H90.5075C90.7599 113.993 90.9644 114.197 90.9644 114.45C90.9644 114.702 90.7599 114.906 90.5075 114.906Z" fill="#C7C4BF"/>
<path fill-rule="evenodd" clip-rule="evenodd" d="M53.4922 79.1928C53.4922 79.1928 55.4022 82.0529 56.9909 87.1097C57.5099 88.763 58.0383 90.515 58.0203 92.3881C58.002 94.2758 57.4134 96.002 56.8835 97.666C55.2902 102.667 53.4922 105.583 53.4922 105.583C53.4922 110.342 70.7361 110.342 70.7361 105.583C70.7361 105.583 68.9387 102.667 67.3453 97.666C66.8149 96.002 66.2269 94.2758 66.2083 92.3881C66.19 90.515 66.7188 88.763 67.238 87.1097C68.8267 82.0529 70.7361 79.1928 70.7361 79.1928C70.7361 74.4338 66.873 70.5707 62.1142 70.5707C57.3559 70.5707 53.4922 74.4338 53.4922 79.1928Z" fill="#C7C4BF"/>
<path d="M24.1957 59.3594C19.2637 59.3594 13.5399 58.1039 8.90818 54.5079C3.26365 50.1254 0.27188 43.2991 0.0156229 34.2184C-0.202033 26.5044 1.85548 21.0145 6.1312 17.9016C12.7643 13.0718 21.9631 16.2477 22.3514 16.3853C23.8437 16.9147 24.6251 18.5523 24.0963 20.0443C23.5687 21.5343 21.935 22.3153 20.4453 21.7921C20.3467 21.7582 13.6523 19.4973 9.48796 22.5488C6.84417 24.4865 5.58524 28.3582 5.74634 34.0567C5.95176 41.3417 8.19846 46.699 12.4239 49.9796C17.4724 53.8993 24.3549 54.1397 28.7149 53.1548C30.2587 52.8055 31.7936 53.7749 32.1425 55.3191C32.4915 56.8631 31.5224 58.3978 29.9782 58.7467C28.2989 59.1261 26.3203 59.3592 24.1957 59.3594Z" fill="#C7C4BF"/>
<path d="M99.8041 59.3594C97.6789 59.3594 95.7013 59.1262 94.0216 58.7467C92.4773 58.3978 91.5083 56.8631 91.8572 55.3191C92.2062 53.7749 93.7407 52.8065 95.2849 53.1548C99.6445 54.1401 106.527 53.8993 111.576 49.9798C115.801 46.699 118.048 41.3417 118.253 34.0569C118.414 28.3582 117.156 24.4865 114.512 22.5488C110.338 19.49 103.621 21.7689 103.554 21.7923C102.061 22.3101 100.427 21.5249 99.9046 20.0344C99.382 18.5439 100.159 16.9127 101.648 16.3853C102.037 16.2477 111.236 13.0718 117.869 17.9016C122.144 21.0145 124.202 26.5044 123.984 34.2186C123.728 43.2991 120.736 50.1254 115.091 54.5079C110.46 58.1035 104.736 59.3592 99.8041 59.3594Z" fill="#C7C4BF"/>
<path fill-rule="evenodd" clip-rule="evenodd" d="M18.8892 20.1355V8.59758C18.8892 3.84704 22.7391 -0.00154877 27.4882 -0.00154877H96.5104C98.7905 -0.00154877 100.978 0.904221 102.591 2.51704C104.203 4.12984 105.109 6.31594 105.109 8.59758C105.109 14.1488 105.109 20.3411 105.109 20.3411C105.032 55.314 85.7449 83.668 61.9992 83.668C38.2065 83.668 18.8892 55.2003 18.8892 20.1355Z" fill="#8C9298"/>
<path fill-rule="evenodd" clip-rule="evenodd" d="M61.8809 19.8058C74.0485 19.8058 83.9121 29.6694 83.9121 41.8366C83.9121 54.0038 74.0485 63.8672 61.8809 63.8672C49.7138 63.8672 39.8501 54.0038 39.8501 41.8366C39.8501 29.6694 49.7138 19.8058 61.8809 19.8058Z" fill="#BDBDBD"/>
<path d="M61.8814 17.2892C48.3464 17.2892 37.3348 28.3007 37.3348 41.8355C37.3348 55.3704 48.3464 66.3818 61.8814 66.3818C75.4165 66.3818 86.4281 55.3704 86.4281 41.8355C86.4281 28.3007 75.4165 17.2892 61.8814 17.2892ZM61.8814 67.5312C47.7125 67.5312 36.1855 56.0042 36.1855 41.8355C36.1855 27.6668 47.7125 16.1406 61.8814 16.1406C76.0502 16.1406 87.5774 27.6668 87.5774 41.8355C87.5774 56.0042 76.0502 67.5312 61.8814 67.5312Z" fill="#C7C4BF"/>
<path fill-rule="evenodd" clip-rule="evenodd" d="M61.063 29.8901C61.1784 29.5359 61.5078 29.2964 61.8805 29.2964C62.2531 29.2964 62.5835 29.5359 62.6987 29.8901C63.5422 32.4867 64.8 36.3584 65.2778 37.8269C65.3924 38.1818 65.7226 38.4213 66.0954 38.4213C67.6399 38.4213 71.7105 38.4213 74.4403 38.4213C74.813 38.4213 75.1434 38.6614 75.2586 39.0157C75.374 39.3698 75.2477 39.7583 74.9461 39.9773C72.7377 41.5817 69.4442 43.9744 68.1946 44.8821C67.8929 45.101 67.7673 45.4894 67.882 45.8436C68.3597 47.3129 69.6175 51.1837 70.461 53.7802C70.5762 54.1345 70.4501 54.5228 70.1485 54.742C69.8474 54.961 69.4394 54.961 69.1376 54.742C66.9294 53.1368 63.6359 50.7442 62.3863 49.8365C62.0846 49.6175 61.6766 49.6175 61.3754 49.8365C60.126 50.7442 56.8323 53.1368 54.6241 54.742C54.3223 54.961 53.9143 54.961 53.6126 54.742C53.3116 54.5228 53.1855 54.1345 53.3007 53.7802C54.1442 51.1837 55.402 47.3129 55.8792 45.8436C55.9944 45.4894 55.8683 45.101 55.5671 44.8821C54.3176 43.9744 51.0241 41.5817 48.8158 39.9773C48.514 39.7583 48.3879 39.3698 48.5031 39.0157C48.6186 38.6614 48.9482 38.4213 49.3206 38.4213C52.0512 38.4213 56.1213 38.4213 57.6665 38.4213C58.0389 38.4213 58.3687 38.1818 58.484 37.8269C58.9617 36.3584 60.2195 32.4867 61.063 29.8901Z" fill="#8C9298"/>
<path d="M32.1061 52.8438C31.4354 52.8438 30.7975 52.4497 30.5185 51.7933C22.9955 34.0936 23.7798 17.3267 23.8168 16.6217C23.8667 15.6701 24.679 14.9382 25.6294 14.9898C26.5804 15.0395 27.3108 15.8516 27.2607 16.8033C27.25 17.0194 26.5051 33.5341 33.6924 50.4444C34.065 51.3207 33.6564 52.3333 32.7799 52.7058C32.5598 52.7994 32.3312 52.8438 32.1061 52.8438Z" fill="#BDBDBD"/>
<path d="M39.8519 66.4766C39.3247 66.4766 38.8045 66.2358 38.4661 65.7802C36.6668 63.3578 35.0004 60.7421 33.5133 58.0058C33.0585 57.1691 33.3683 56.1223 34.2051 55.6675C35.0417 55.2129 36.0889 55.5222 36.5437 56.3592C37.9534 58.9535 39.5317 61.4312 41.2347 63.7237C41.8026 64.4883 41.6432 65.5685 40.8787 66.1362C40.5697 66.3659 40.2093 66.4766 39.8519 66.4766Z" fill="#BDBDBD"/>
<path fill-rule="evenodd" clip-rule="evenodd" d="M107.893 4.73955C107.893 2.1216 105.77 -0.00142574 103.151 -0.00142574C87.3259 -0.00142574 36.4377 -0.00142574 20.6123 -0.00142574C17.9934 -0.00142574 15.8701 2.1216 15.8701 4.73955C15.8701 4.74146 15.8701 4.74147 15.8701 4.74147C15.8701 7.36134 17.9934 9.48438 20.6123 9.48438C36.4377 9.48438 87.3259 9.48438 103.151 9.48438C105.77 9.48438 107.893 7.36134 107.893 4.74147C107.893 4.74147 107.893 4.74146 107.893 4.73955Z" fill="#BDBDBD"/>
<path d="M100.718 5.57031H23.5116C23.0556 5.57031 22.686 5.19959 22.686 4.74479C22.686 4.28808 23.0556 3.91927 23.5116 3.91927H100.718C101.174 3.91927 101.544 4.28808 101.544 4.74479C101.544 5.19959 101.174 5.57031 100.718 5.57031Z" fill="#8C9298"/>
</g>
<defs>
<filter id="filter0_d_252_3343" x="0" y="0" width="128" height="157.059" filterUnits="userSpaceOnUse" color-interpolation-filters="sRGB">
<feFlood flood-opacity="0" result="BackgroundImageFix"/>
<feColorMatrix in="SourceAlpha" type="matrix" values="0 0 0 0 0 0 0 0 0 0 0 0 0 0 0 0 0 0 127 0" result="hardAlpha"/>
<feOffset dx="4" dy="4"/>
<feComposite in2="hardAlpha" operator="out"/>
<feColorMatrix type="matrix" values="0 0 0 0 0 0 0 0 0 0 0 0 0 0 0 0 0 0 1 0"/>
<feBlend mode="normal" in2="BackgroundImageFix" result="effect1_dropShadow_252_3343"/>
<feBlend mode="normal" in="SourceGraphic" in2="effect1_dropShadow_252_3343" result="shape"/>
</filter>
</defs>
</svg>
